HIERARCHY
ROOT Hips
{
	OFFSET 0.00000 0.00000 0.00000
	CHANNELS 6 Xposition Yposition Zposition Yrotation Zrotation Xrotation 
	JOINT Lumbar
	{
		OFFSET 0 0 0
		CHANNELS 3 Zrotation Xrotation Yrotation
		JOINT Neck
		{
			OFFSET 0.00 0.2701 0.00
			CHANNELS 3 Zrotation Xrotation Yrotation
			End Site
			{
				OFFSET 0.00 0.1379 0.00
			}
		}
		JOINT RightShoulder
		{
			OFFSET 0.0119 0.2289 0.1181
			CHANNELS 3 Zrotation Xrotation Yrotation
			JOINT RightElbow
			{
				OFFSET 0.00 -0.1475 0.00
				CHANNELS 2 Zrotation Yrotation
				JOINT RightWrist
				{
					OFFSET 0.00 -0.1605 0.00
					CHANNELS 2 Zrotation Xrotation
					End Site
					{
						OFFSET 0.0040 -0.1068 0.0006
					}
				}
			}
		}
		JOINT LeftShoulder
		{
			OFFSET 0.0119 0.2289 -0.1181
			CHANNELS 3 Zrotation Xrotation Yrotation
			JOINT LeftElbow
			{
				OFFSET 0.00 -0.1475 0.00
				CHANNELS 2 Zrotation Yrotation
				JOINT LeftWrist
				{
					OFFSET 0.00 -0.1605 0.00
					CHANNELS 2 Zrotation Xrotation
					End Site
					{
						OFFSET 0.0040 -0.1068 -0.0006
					}
				}
			}
		}
	}
	JOINT RightHip
	{
		OFFSET 0.0316 -0.0424 0.0458
		CHANNELS 3 Zrotation Xrotation Yrotation
		JOINT RightKnee
		{
			OFFSET 0.00 -0.2438 0.00
			CHANNELS 1 Zrotation
			JOINT RightAnkle
			{
				OFFSET 0.00 -0.2449 0.00
				CHANNELS 3 Zrotation Xrotation Yrotation
				End Site
				{
					OFFSET 0.1237 -0.0542 0.0051
				}
			}
		}
	}
	JOINT LeftHip
	{
		OFFSET 0.0316 -0.0424 -0.0458
		CHANNELS 3 Zrotation Xrotation Yrotation
		JOINT LeftKnee
		{
			OFFSET 0.00 -0.2438 0.00
			CHANNELS 1 Zrotation
			JOINT LeftAnkle
			{
				OFFSET 0.00 -0.2449 0.00
				CHANNELS 3 Zrotation Xrotation Yrotation
				End Site
				{
					OFFSET 0.1237 -0.0542 -0.0051
				}
			}
		}
	}
}
MOTION
Frames: 11
Frame Time: 0.02
0.20832 0.44984 0.05709 184.96076 0 -5.46535 -35.02732 7.0238 4.39078 27.20927 0.03758 -4.55253 -0.41148 -7.83261 53.33948 27.01787 106.76524 -73.09286 -7.58825 4.1665 -10.14659 58.12249 10.3404 -64.99946 59.692 4.18972 54.96044 1.45524 -14.14234 -57.45651 18.14967 -7.26412 -2.28174 56.78378 2.22787 -5.03031 -60.95201 19.49484 21.57959 8.15223
0.20843 0.44989 0.05705 184.94133 0 -5.51067 -35.09792 6.94892 4.53353 27.22139 0.47292 -4.66112 -0.40354 -8.46188 53.41302 27.37127 106.87512 -72.51771 -7.21111 4.68643 -10.58028 63.0254 9.76441 -67.25834 59.72207 2.21146 54.82821 1.50399 -14.16386 -56.41958 14.74859 -6.24862 -2.17689 56.7831 2.24426 -5.08198 -61.07206 19.53297 22.02685 8.4039
0.20857 0.44997 0.05701 184.95311 0 -5.58004 -35.19867 6.87844 4.6745 27.45056 1.01216 -4.80632 -0.61709 -9.26778 53.50164 27.86743 107.01538 -71.8092 -6.78328 5.11332 -11.12274 69.23745 9.05495 -70.05654 59.78526 -0.25803 54.65369 1.55794 -14.19906 -55.10089 10.43099 -5.15143 -2.12493 56.78146 2.2713 -5.14568 -61.13891 19.53199 22.14653 8.53154
0.2087 0.45004 0.05697 184.95068 0 -5.63646 -35.28339 6.80912 4.81301 27.57203 1.48796 -4.93097 -0.72104 -9.97006 53.58108 28.28804 107.13319 -71.1855 -6.38977 5.55721 -11.59839 74.4736 8.44588 -72.44194 59.81012 -2.36355 54.50526 1.60847 -14.22438 -53.95436 6.66123 -4.11833 -2.052 56.78034 2.29317 -5.20083 -61.22761 19.54653 22.4117 8.71114
0.20884 0.45012 0.05692 184.94782 0 -5.70096 -35.379 6.72506 4.96631 27.73652 2.03213 -5.07391 -0.86695 -10.77331 53.67118 28.75673 107.28267 -70.45762 -5.94349 6.10095 -12.1486 81.28869 7.67202 -75.5225 59.93161 -5.05238 54.32826 1.66328 -14.26463 -52.61932 2.32884 -2.95168 -1.95942 56.7784 2.31719 -5.26752 -61.32564 19.56268 22.69309 8.91047
0.20896 0.45018 0.05689 184.95345 0 -5.75456 -35.45889 6.6731 5.08792 27.86213 2.4592 -5.18704 -0.97746 -11.40813 53.7424 29.15833 107.37581 -69.91475 -5.59689 6.41875 -12.56953 85.16699 7.20562 -77.30071 59.86209 -6.65767 54.2001 1.71061 -14.27728 -51.60889 -1.04992 -2.05035 -1.92262 56.778 2.33903 -5.31378 -61.39038 19.56664 22.85522 9.03806
0.20901 0.45016 0.05692 184.97541 0 -5.77173 -35.48562 6.71091 5.12324 27.81488 2.52959 -5.20524 -0.92365 -11.52343 53.75695 29.3355 107.29876 -69.92906 -5.54005 6.11662 -12.59859 80.24421 7.6577 -75.19389 59.2355 -5.01817 54.22297 1.73422 -14.20991 -51.58902 -1.52389 -1.91452 -2.03059 56.78359 2.35133 -5.29846 -61.3932 19.57583 22.85425 9.00774
0.20903 0.45012 0.05696 185.00483 0 -5.77726 -35.49582 6.7807 5.12632 27.72247 2.47962 -5.19244 -0.82808 -11.46429 53.752 29.44032 107.16584 -70.13228 -5.58568 5.59439 -12.49479 72.38819 8.41717 -71.78645 58.41984 -2.29525 54.29546 1.75042 -14.11453 -51.90169 -1.01327 -2.04917 -2.19317 56.79049 2.36105 -5.26288 -61.36118 19.56845 22.73 8.90802
0.20907 0.45009 0.057 185.03058 0 -5.78847 -35.51489 6.83458 5.14366 27.65803 2.49024 -5.19604 -0.75904 -11.49246 53.75643 29.58084 107.06387 -70.24022 -5.5837 5.18619 -12.45733 66.11936 9.01159 -69.07759 57.70438 -0.15584 54.34134 1.77124 -14.03227 -52.04594 -0.983 -2.05441 -2.32936 56.79607 2.37247 -5.23805 -61.33472 19.55319 22.60581 8.8331
0.20911 0.45004 0.05704 185.05858 0 -5.79882 -35.52905 6.89427 5.16316 27.56987 2.48093 -5.19164 -0.66612 -11.4948 53.75924 29.71536 106.93963 -70.38237 -5.58406 4.7162 -12.39967 58.82807 9.70768 -65.93535 56.92846 2.3488 54.40257 1.78712 -13.94851 -52.25244 -0.84727 -2.0835 -2.47399 56.80511 2.38224 -5.20657 -61.35108 19.60858 22.70373 8.78073
0.20914 0.45002 0.05708 185.08329 0 -5.80794 -35.54944 6.94959 5.16986 27.51752 2.48156 -5.19549 -0.60988 -11.50485 53.76055 29.84222 106.84786 -70.50099 -5.60481 4.32303 -12.34968 52.94676 10.26763 -63.37783 56.23485 4.35941 54.44455 1.81126 -13.86144 -52.41301 -0.68389 -2.12871 -2.61321 56.80671 2.39447 -5.18466 -61.26901 19.50449 22.31731 8.6685
